<?xml version="1.0" standalone="no"?>
<!DOCTYPE svg PUBLIC "-//W3C//DTD SVG 20010904//EN"
 "http://www.w3.org/TR/2001/REC-SVG-20010904/DTD/svg10.dtd">
<svg version="1.0" xmlns="http://www.w3.org/2000/svg"
 width="16.000000pt" height="16.000000pt" viewBox="0 0 16.000000 16.000000"
 preserveAspectRatio="xMidYMid meet">
<metadata>
Created by potrace 1.11, written by Peter Selinger 2001-2013
</metadata>
<g transform="translate(0.000000,16.000000) scale(0.002286,-0.002286)"
fill="#000000" stroke="none">
<path d="M3479 6566 c-2 -2 -65 -6 -139 -10 -74 -3 -144 -8 -155 -10 -11 -2
-47 -7 -80 -11 -114 -13 -140 -18 -287 -51 -453 -102 -874 -307 -1243 -605
-158 -128 -310 -278 -442 -436 -10 -12 -25 -30 -34 -41 -9 -11 -52 -69 -94
-128 -244 -344 -411 -724 -499 -1134 -26 -121 -29 -143 -45 -280 -21 -177 -28
-430 -16 -555 2 -22 6 -78 10 -125 4 -46 8 -87 10 -91 3 -3 6 -26 9 -50 3 -24
8 -57 11 -74 3 -16 8 -43 11 -60 34 -183 119 -457 191 -615 124 -276 247 -480
417 -695 139 -175 333 -370 481 -483 33 -25 62 -49 65 -52 12 -15 233 -162
320 -212 369 -215 830 -362 1228 -394 37 -3 81 -7 97 -9 37 -6 356 -6 410 0
22 2 70 6 107 10 37 3 77 8 90 10 13 2 41 6 63 9 35 4 80 13 242 47 94 19 334
94 428 134 187 78 339 156 495 254 58 36 110 69 115 73 6 5 53 40 105 79 320
240 618 581 820 939 50 89 142 279 165 341 86 230 156 469 171 578 3 25 8 49
10 52 1 3 6 28 9 55 4 27 8 60 10 74 29 172 34 569 10 725 -3 17 -7 55 -11 85
-20 181 -108 529 -173 685 -5 11 -24 56 -42 100 -59 143 -155 324 -246 465
-432 665 -1101 1139 -1863 1318 -107 25 -237 49 -315 58 -33 3 -63 8 -66 10
-3 2 -80 6 -170 10 -90 3 -167 8 -170 10 -3 2 -8 2 -10 0z"/>
</g>
</svg>
